<?xml version="1.0" encoding="UTF-8" standalone="no"?>
<!-- Created with Inkscape (http://www.inkscape.org/) -->

<svg
   width="75.659218mm"
   height="45.542664mm"
   viewBox="0 0 75.659218 45.542664"
   version="1.1"
   id="svg5"
   xmlns:xlink="http://www.w3.org/1999/xlink"
   xmlns="http://www.w3.org/2000/svg"
   xmlns:svg="http://www.w3.org/2000/svg">
  <defs
     id="defs2">
    <linearGradient
       id="linearGradient3990">
      <stop
         style="stop-color:#ff0000;stop-opacity:1;"
         offset="0"
         id="stop3988" />
    </linearGradient>
    <clipPath
       clipPathUnits="userSpaceOnUse"
       id="clipPath3829">
      <path
         id="path3831"
         style="fill:#ff0000;fill-opacity:1;fill-rule:nonzero;stroke:none;stroke-width:0.264583"
         d="m 38.509276,78.27636 v 0.468188 c 0.06845,0.07995 0.124431,0.195178 0.153998,0.348816 0.02283,0.118568 0.01283,0.06143 0.031,0.171564 0.0291,0.170537 0.05812,0.340894 0.101804,0.508497 0.04124,0.185323 0.09378,0.367721 0.16588,0.543637 0.0784,0.18006 0.175207,0.351766 0.241848,0.536916 0.05165,0.121497 0.104989,0.242983 0.17725,0.353984 0.07799,0.126698 0.170698,0.242197 0.273883,0.349335 0.136247,0.154146 0.270838,0.313928 0.343649,0.509529 0.01373,0.0421 0.03144,0.08293 0.04134,0.12609 0.02748,0.119554 0.01627,0.241043 0.01757,0.362251 -7.93e-4,0.123714 -0.0019,0.247891 -0.0057,0.371555 -0.0031,0.08592 -0.0072,0.171741 -0.01551,0.257349 h 0.155546 0.371554 0.381887 c 0.105772,0 0.196768,0.01506 0.272854,0.04082 h 5.29e-4 c 0.246163,0.0038 0.492535,0.009 0.738458,0.02066 0.094,0.0051 0.187348,0.01712 0.281119,0.02429 2.65e-4,2.6e-5 7.94e-4,-2.4e-5 0.0011,0 0.0092,-7.94e-4 0.01863,-0.0013 0.0279,-0.0016 0.02945,5e-6 0.05893,-2.9e-5 0.08837,0 0.03051,3.7e-5 0.06097,-1.75e-4 0.09147,0 0.03165,2.01e-4 0.06345,5.29e-4 0.09508,0.0016 0.03546,0.0013 0.07117,0.0039 0.106455,0.0078 0.03797,0.0044 0.07519,0.01016 0.113171,0.01447 0.0336,0.0045 0.06726,0.0105 0.101285,0.0093 0.03309,-1.98e-4 0.06666,-5.29e-4 0.09974,-0.0016 0.03405,-0.0013 0.068,-0.0027 0.101801,-0.0072 0.03306,-0.0056 0.06571,-0.01373 0.0987,-0.01963 0.03786,-0.0079 0.07598,-0.01574 0.114721,-0.01601 0.0055,-3.9e-5 0.01098,1.72e-4 0.01654,5.3e-4 0.0312,5.29e-4 0.06238,0.0011 0.09354,0.0026 0.0381,0.0021 0.07648,0.0049 0.113686,0.01394 0.03353,0.0086 0.06616,0.01897 0.09612,0.03669 0.02416,0.01312 0.04761,0.02788 0.07028,0.04341 0.01087,0.007 0.0208,0.01413 0.03049,0.01654 0.02101,0.0038 0.04147,0.0087 0.06305,0.0057 0.03889,-0.0021 0.07791,-0.0049 0.11679,-0.0072 0.144296,-0.0085 0.177297,0.09856 0.100251,0.156065 0.06822,0.03182 0.122552,0.07077 0.163814,0.11317 2.64e-4,1.24e-4 7.94e-4,2.38e-4 0.0011,5.29e-4 0.258591,0.08803 0.397695,0.235895 0.435115,0.378791 0.268103,0.0036 0.536485,0.0011 0.80305,-0.02842 0.749097,-0.08281 0.831178,0.678299 0.08165,0.75706 -0.367504,0.03858 -0.737735,0.04252 -1.106908,0.03101 -0.01791,-5.29e-4 -0.03586,-0.0011 -0.05374,-0.0016 0.02291,0.02773 0.04752,0.05372 0.0677,0.08423 0.02548,0.05029 0.05636,0.09822 0.07648,0.150894 0.008,0.02109 0.015,0.04234 0.02119,0.06356 0.417888,0.102055 0.835967,0.203181 1.25522,0.299722 0.07884,0.01757 0.157837,0.03513 0.236678,0.05271 0.611933,0.13644 0.473948,0.754528 -0.137975,0.618048 -0.08027,-0.01791 -0.160544,-0.03584 -0.240813,-0.05374 -0.386728,-0.08906 -0.772364,-0.182949 -1.158068,-0.276469 -0.07582,0.184441 -0.175707,0.354203 -0.313677,0.499711 -0.03106,0.02868 -0.06007,0.06043 -0.09147,0.08888 0.03864,0.0061 0.07711,0.01355 0.115755,0.01963 0.195024,0.02876 0.390009,0.05654 0.584459,0.08888 0.266129,0.04429 0.453565,0.1456 0.567926,0.269235 0.162618,-0.01556 0.325236,-0.03304 0.487825,-0.04651 1.448499,-0.11381 2.902133,-0.10655 4.325832,-0.420129 0.557231,-0.136959 1.114758,-0.273735 1.673283,-0.405143 3.452334,-0.812234 4.272253,2.676869 0.819589,3.487642 -0.583872,0.137107 -1.165603,0.282091 -1.748729,0.422196 -1.576345,0.325839 -3.171034,0.393448 -4.774904,0.485759 -0.718833,0.05925 -1.438158,0.137141 -2.158008,0.203089 0.223124,0.0223 0.454425,0.05225 0.637689,0.183967 0.06148,0.04419 0.11159,0.102349 0.167431,0.15348 0.03962,0.07798 0.09802,0.148629 0.118856,0.233576 0.06739,0.274736 -0.05793,0.541179 -0.144177,0.794269 -0.09311,0.279678 -0.210807,0.550201 -0.310576,0.827339 -0.07054,0.212304 -0.140462,0.425291 -0.224792,0.632518 -0.07523,0.175591 -0.138393,0.352661 -0.237713,0.516766 -0.05002,0.05063 -0.09293,0.09806 -0.135392,0.139009 0.981011,0.01257 1.961922,0.0263 2.942973,0.05168 2.511727,0.07587 5.024197,0.135644 7.53649,0.188103 3.545808,0.07404 3.470875,3.655753 -0.07493,3.581694 -2.518291,-0.0526 -5.036352,-0.11257 -7.554061,-0.188619 -2.707605,-0.07023 -5.415285,-0.0826 -8.123536,-0.07803 V 140.62242 H 140.62242 V 78.27636 Z m 0.298691,6.384105 c 0.005,0.0083 0.01588,0.02117 0.02946,0.03566 -0.0026,-0.0065 -0.0045,-0.01323 -0.0072,-0.01963 -0.0016,-0.0035 -0.0041,-0.0084 -0.0067,-0.01291 -0.0052,-0.0011 -0.01035,-0.0021 -0.0155,-0.0031 z m -0.298691,1.295529 v 0.04031 c 0.0056,-0.01167 0.01148,-0.02307 0.01757,-0.03462 -0.0059,-0.0019 -0.01167,-0.0039 -0.01757,-0.0057 z m 5.463233,5.546432 c 0.02233,0.01413 0.04552,0.02453 0.06253,0.02273 0.0089,-7.93e-4 -0.01516,-0.0099 -0.02376,-0.01241 -0.01273,-0.0038 -0.0258,-0.0074 -0.03876,-0.01035 z m -4.792988,1.257802 c 8e-5,0.0038 -8.2e-5,0.0076 0,0.01138 0.0097,-0.0024 0.02,-0.0048 0.02997,-0.0072 -0.01,-0.0013 -0.01998,-0.0028 -0.02997,-0.0041 z m 3.436483,0.23358 c -0.03534,0.01632 -0.08043,0.02738 -0.135393,0.03462 -5.29e-4,0.0011 -5.29e-4,0.0021 -0.0011,0.0031 0.02376,5.29e-4 0.04755,0.0011 0.07131,0.0016 0.01691,2.64e-4 0.03373,1.03e-4 0.05064,5.29e-4 0.0053,-0.01318 0.0099,-0.02638 0.01447,-0.03979 z m -0.02739,0.06924 c -0.01678,0.0076 -0.03136,0.01757 -0.03255,0.03824 -0.0021,0.0069 -0.01291,0.01818 -0.0062,0.02066 0.0044,0.0016 0.02474,-0.02792 0.03876,-0.05891 z" />
    </clipPath>
    <linearGradient
       xlink:href="#linearGradient3990"
       id="linearGradient3992"
       x1="27.39333"
       y1="97.595497"
       x2="55.065662"
       y2="97.595497"
       gradientUnits="userSpaceOnUse"
       gradientTransform="matrix(0.66751694,0,0,0.73048275,9.1847472,21.007501)" />
  </defs>
  <g
     id="layer1"
     transform="translate(-55.259626,-79.707014)">
    <g
       id="g3997"
       transform="translate(27.866319,1.519981)">
      <path
         id="rect234"
         clip-path="url(#clipPath3829)"
         style="fill:none;stroke:#ff0000;stroke-width:5;stroke-linecap:round;stroke-linejoin:round"
         transform="matrix(0.66751694,0,0,0.73048275,9.1847472,21.007501)"
         d="M 41.009151,80.776337 H 138.12233 V 138.12233 H 41.009151 Z" />
      <path
         style="fill:none;fill-opacity:0;stroke:#ff0000;stroke-width:3.49145;stroke-linecap:round;stroke-linejoin:round;stroke-dasharray:none;stroke-opacity:1;paint-order:normal"
         d="m 36.36792,79.989246 c 0,0 0.458364,0 0.45836,0 -4e-6,0 -0.45836,0 -0.45836,0 z"
         id="path3835" />
      <path
         style="fill:url(#linearGradient3992);fill-opacity:1;stroke:#ff0000;stroke-width:3.49145;stroke-linecap:round;stroke-linejoin:round;stroke-dasharray:none;stroke-opacity:1;paint-order:normal"
         d="m 29.138804,96.509255 7.694149,-8.419926 7.440496,8.14235 z"
         id="path3984" />
    </g>
  </g>
</svg>
